<?xml version="1.0" encoding="UTF-8" ?>
<!DOCTYPE svg PUBLIC "-//W3C//DTD SVG 1.1//EN" "http://www.w3.org/Graphics/SVG/1.1/DTD/svg11.dtd">
<svg width="612pt" height="612pt" viewBox="0 0 612 612" version="1.1" xmlns="http://www.w3.org/2000/svg">
<g id="#f4f5f7ff">
<path fill="#f4f5f7" opacity="1.00" d=" M 0.00 0.00 L 612.00 0.00 L 612.00 612.00 L 0.00 612.00 L 0.00 0.00 M 210.46 234.71 C 207.93 236.17 206.30 239.01 206.47 241.95 C 206.53 284.65 206.44 327.34 206.51 370.04 C 205.97 374.27 209.81 378.09 213.92 378.21 C 274.95 378.11 335.98 378.18 397.01 378.18 C 401.50 378.63 405.92 374.66 405.53 370.07 C 405.51 327.38 405.51 284.69 405.53 242.00 C 406.13 237.33 401.52 233.43 397.04 233.78 C 336.00 233.73 274.96 233.78 213.93 233.75 C 212.68 233.75 211.52 234.07 210.46 234.71 Z" />
<path fill="#f4f5f7" opacity="1.00" d=" M 212.31 239.97 C 215.51 239.46 218.75 239.53 221.98 239.59 C 277.63 239.59 333.29 239.58 388.94 239.59 C 392.53 239.63 396.19 239.19 399.69 240.20 C 399.78 277.86 399.73 315.53 399.72 353.20 C 390.95 345.35 382.98 336.64 374.55 328.43 C 368.88 322.68 362.99 317.14 357.54 311.18 C 356.49 311.40 355.44 311.71 354.78 312.63 C 342.97 324.84 330.69 336.60 318.89 348.82 C 317.99 349.66 317.01 350.37 315.93 350.97 C 298.87 333.55 281.61 316.30 264.20 299.23 C 247.23 316.99 229.26 333.80 212.38 351.64 C 212.19 314.42 212.33 277.19 212.31 239.97 M 327.08 264.07 C 322.52 265.39 319.31 269.60 318.45 274.17 C 317.11 281.03 322.08 288.44 329.10 289.40 C 336.59 291.03 344.70 284.71 344.54 276.95 C 345.28 268.11 335.36 260.73 327.08 264.07 Z" />
</g>
<g id="#808b91ff">
<path fill="#808b91" opacity="1.00" d=" M 210.46 234.71 C 211.52 234.07 212.68 233.75 213.93 233.75 C 274.96 233.78 336.00 233.73 397.04 233.78 C 401.52 233.43 406.13 237.33 405.53 242.00 C 405.51 284.69 405.51 327.38 405.53 370.07 C 405.92 374.66 401.50 378.63 397.01 378.18 C 335.98 378.18 274.95 378.11 213.92 378.21 C 209.81 378.09 205.97 374.27 206.51 370.04 C 206.44 327.34 206.53 284.65 206.47 241.95 C 206.30 239.01 207.93 236.17 210.46 234.71 M 212.31 239.97 C 212.33 277.19 212.19 314.42 212.38 351.64 C 229.26 333.80 247.23 316.99 264.20 299.23 C 281.61 316.30 298.87 333.55 315.93 350.97 C 317.01 350.37 317.99 349.66 318.89 348.82 C 330.69 336.60 342.97 324.84 354.78 312.63 C 355.44 311.71 356.49 311.40 357.54 311.18 C 362.99 317.14 368.88 322.68 374.55 328.43 C 382.98 336.64 390.95 345.35 399.72 353.20 C 399.73 315.53 399.78 277.86 399.69 240.20 C 396.19 239.19 392.53 239.63 388.94 239.59 C 333.29 239.58 277.63 239.59 221.98 239.59 C 218.75 239.53 215.51 239.46 212.31 239.97 Z" />
<path fill="#808b91" opacity="1.00" d=" M 327.08 264.07 C 335.36 260.73 345.28 268.11 344.54 276.95 C 344.70 284.71 336.59 291.03 329.10 289.40 C 322.08 288.44 317.11 281.03 318.45 274.17 C 319.31 269.60 322.52 265.39 327.08 264.07 Z" />
</g>
</svg>
