<?xml version="1.0" encoding="utf-8"?>
<!-- Generator: Adobe Illustrator 24.3.0, SVG Export Plug-In . SVG Version: 6.00 Build 0)  -->
<svg version="1.1" id="Layer_1" xmlns="http://www.w3.org/2000/svg" xmlns:xlink="http://www.w3.org/1999/xlink" x="0px" y="0px"
	 viewBox="0 0 612 612" style="enable-background:new 0 0 612 612;" xml:space="preserve">
<style type="text/css">
	.st0{fill:#424242;}
	.st1{fill:#6B6B6B;}
</style>
<g id="_x23_f4f5f7ff">
	<path class="st0" d="M0,0h612v612H0V0 M210.5,234.7c-2.5,1.5-4.2,4.3-4,7.2c0.1,42.7,0,85.4,0,128.1c-0.5,4.2,3.3,8,7.4,8.2
		c61-0.1,122.1,0,183.1,0c4.5,0.5,8.9-3.5,8.5-8.1c0-42.7,0-85.4,0-128.1c0.6-4.7-4-8.6-8.5-8.2c-61-0.1-122.1,0-183.1,0
		C212.7,233.8,211.5,234.1,210.5,234.7z"/>
	<path class="st0" d="M212.3,240c3.2-0.5,6.4-0.4,9.7-0.4c55.7,0,111.3,0,167,0c3.6,0,7.2-0.4,10.8,0.6c0.1,37.7,0,75.3,0,113
		c-8.8-7.9-16.7-16.6-25.2-24.8c-5.7-5.8-11.6-11.3-17-17.2c-1.1,0.2-2.1,0.5-2.8,1.5c-11.8,12.2-24.1,24-35.9,36.2
		c-0.9,0.8-1.9,1.5-3,2.1c-17.1-17.4-34.3-34.7-51.7-51.7c-17,17.8-34.9,34.6-51.8,52.4C212.2,314.4,212.3,277.2,212.3,240
		 M327.1,264.1c-4.6,1.3-7.8,5.5-8.6,10.1c-1.3,6.9,3.6,14.3,10.6,15.2c7.5,1.6,15.6-4.7,15.4-12.4
		C345.3,268.1,335.4,260.7,327.1,264.1z"/>
</g>
<g id="_x23_808b91ff">
	<path class="st1" d="M210.5,234.7c1.1-0.6,2.2-1,3.5-1c61,0,122.1,0,183.1,0c4.5-0.4,9.1,3.6,8.5,8.2c0,42.7,0,85.4,0,128.1
		c0.4,4.6-4,8.6-8.5,8.1c-61,0-122.1-0.1-183.1,0c-4.1-0.1-7.9-3.9-7.4-8.2c-0.1-42.7,0-85.4,0-128.1
		C206.3,239,207.9,236.2,210.5,234.7 M212.3,240c0,37.2-0.1,74.5,0.1,111.7c16.9-17.8,34.8-34.7,51.8-52.4
		c17.4,17.1,34.7,34.3,51.7,51.7c1.1-0.6,2.1-1.3,3-2.1c11.8-12.2,24.1-24,35.9-36.2c0.7-0.9,1.7-1.2,2.8-1.5
		c5.4,6,11.3,11.5,17,17.2c8.4,8.2,16.4,16.9,25.2,24.8c0-37.7,0.1-75.3,0-113c-3.5-1-7.2-0.6-10.8-0.6c-55.6,0-111.3,0-167,0
		C218.8,239.5,215.5,239.5,212.3,240z"/>
	<path class="st1" d="M327.1,264.1c8.3-3.3,18.2,4,17.5,12.9c0.2,7.8-8,14.1-15.4,12.4c-7-1-12-8.4-10.6-15.2
		C319.3,269.6,322.5,265.4,327.1,264.1z"/>
</g>
</svg>
