<svg id="Layer_1" data-name="Layer 1" xmlns="http://www.w3.org/2000/svg" viewBox="0 0 923.06 419.74"><defs><style>.cls-1{fill:#494949;}.cls-2{fill:#009fe3;}</style></defs><path class="cls-1" d="M173.83,273.5q15.33,0,26.4,4.13t17.14,11.63a31.82,31.82,0,0,1,6.81,18.23q.73,10.72-4.58,23.92H181.71A12.18,12.18,0,0,1,175,329.7c-1.77-1.13-2.31-3.19-1.6-6.17.14-.57.29-1.07.43-1.49s.28-.92.43-1.49a3.16,3.16,0,0,0,.63-1.92,20,20,0,0,0,.86-7.77q-.44-3.08-4.69-3.08a11.46,11.46,0,0,0-8.51,3.2q-3.2,3.19-6.18,10.66a7.64,7.64,0,0,0,1.71,8.31,64.77,64.77,0,0,0,9.15,8.22q5.75,4.36,12.24,9.59a51.16,51.16,0,0,1,11.07,12.37,38.15,38.15,0,0,1,5.64,16.52q1.06,9.39-4,22a71,71,0,0,1-9.37,17.17A42.24,42.24,0,0,1,169.89,427a55.81,55.81,0,0,1-17.56,6.08,133.73,133.73,0,0,1-23.42,1.81q-15.33,0-26.4-4.05t-17.13-11.6a32,32,0,0,1-6.82-18.31q-.74-10.74,4.58-24.16h37.68a10.84,10.84,0,0,1,7.45,2.45q2.78,2.44,0,8.62a5.62,5.62,0,0,0-.53,1.49,6.91,6.91,0,0,0-.11,1.07,17.64,17.64,0,0,0-.53,7.23q.53,3,4.58,3a11.49,11.49,0,0,0,8.51-3.19q3.19-3.19,6.18-10.64,1.69-4.26-1.71-8.2a60.79,60.79,0,0,0-9.15-8.3q-5.74-4.36-12.24-9.69a53.61,53.61,0,0,1-11.07-12.35,37.4,37.4,0,0,1-5.64-16.5q-1.07-9.47,4-22A70.91,70.91,0,0,1,120,292.55a42.31,42.31,0,0,1,12.88-11.17,55.8,55.8,0,0,1,17.56-6.07A133.73,133.73,0,0,1,173.83,273.5Z" transform="translate(-78.47 -15.13)"/><path class="cls-1" d="M361.81,312.25H323.7l-49,120.28H229.18l49-120.28h-37l14.69-36.2H376.5Z" transform="translate(-78.47 -15.13)"/><path class="cls-1" d="M447.39,273.5q14.25,0,24.27,4.26a31.69,31.69,0,0,1,15.11,12.56q5.12,8.3,5,20.33T485.71,338q-5.55,14.89-11,27.78T464,391a133.62,133.62,0,0,1-11.81,23.21,47.07,47.07,0,0,1-12.78,13.3,39,39,0,0,1-15.54,6,127.09,127.09,0,0,1-19.9,1.38h-21.5A56.93,56.93,0,0,1,365,432.21a27.36,27.36,0,0,1-13.41-9q-5.11-6.39-5.75-16.92t5.53-26.3l8.09-20.22q3.63-8.94,7.88-19.59t8.52-21.07a88.2,88.2,0,0,1,10-18.63,65.23,65.23,0,0,1,13.84-14.37,62.45,62.45,0,0,1,17.46-9.26A63.59,63.59,0,0,1,438,273.5Zm-6.18,48.11c1.14-2.55,1.17-4.75.11-6.6s-2.87-2.76-5.43-2.76q-5.33,0-7.66,2t-4.47,7.56l-26.61,66q-3.19,8.1-1.81,10.43c.92,1.57,2.73,2.34,5.42,2.34a13.4,13.4,0,0,0,7.67-2q3-2,5.11-7.34Z" transform="translate(-78.47 -15.13)"/><path class="cls-1" d="M603.86,276.27Q616,277.34,623.23,282a29.13,29.13,0,0,1,10.64,11.6,30,30,0,0,1,3,15.11A51.49,51.49,0,0,1,633.24,325a60.72,60.72,0,0,1-8.09,14.58,71.22,71.22,0,0,1-9.9,10.54,56.83,56.83,0,0,1-10.75,7.34c-3.7,1.92-7.24,3.59-10.65,5q9.79,3.19,12.14,13.62t-3.2,24.27l-13,32.15H550a8.4,8.4,0,0,1-5.43-2.24q-2.67-2.24-1-6.7l14.26-35.13q1.49-3.82-.42-6.6a6.35,6.35,0,0,0-5.54-2.77h-9.15l-21.5,53.44H474.21L537,276.05h66.85Zm-20,45.34q1.49-3.83-.11-6.6a5.55,5.55,0,0,0-5.22-2.76H570l-10,24.48h8.73a12.34,12.34,0,0,0,7.35-2.77,16.48,16.48,0,0,0,5.42-6.6Z" transform="translate(-78.47 -15.13)"/><path class="cls-1" d="M791.83,276.05,776.08,314.8h-69l-8.52,19.8h55.56L739,372.07H683.9l-8.3,19.8h69l-16.39,40.66h-115l63.65-156.48Z" transform="translate(-78.47 -15.13)"/><path class="cls-1" d="M288.54,188.07l-20.68,51H137.78L227.4,18.73h64.14L222.9,188.07Z" transform="translate(-78.47 -15.13)"/><path class="cls-1" d="M370.07,239H305.92l89.62-220.3h64.14Z" transform="translate(-78.47 -15.13)"/><path class="cls-1" d="M572.37,15.13q20.08,0,34.17,6t21.28,17.68q7.2,11.69,7,28.62T626.32,106q-7.79,21-15.43,39.11t-15.14,35.52q-8.38,20.38-16.63,32.67t-18,18.73a55.08,55.08,0,0,1-21.89,8.4,179.69,179.69,0,0,1-28,1.94H481a80.23,80.23,0,0,1-24.58-3.74,38.68,38.68,0,0,1-18.88-12.74q-7.2-9-8.09-23.83t7.79-37l11.39-28.47q5.09-12.59,11.09-27.57t12-29.68a123.94,123.94,0,0,1,14.08-26.22,91.75,91.75,0,0,1,19.49-20.24,88,88,0,0,1,24.57-13,89.56,89.56,0,0,1,29.38-4.65Zm-8.69,67.74q2.4-5.4.15-9.29c-1.5-2.6-4-3.9-7.64-3.9q-7.5,0-10.79,2.85t-6.3,10.64l-37.46,92.91q-4.5,11.4-2.55,14.69t7.65,3.3a18.86,18.86,0,0,0,10.79-2.85q4.19-2.85,7.19-10.34Z" transform="translate(-78.47 -15.13)"/><path class="cls-1" d="M892.18,18.73,802.56,239h-47a18.62,18.62,0,0,1-13-5.1A22.83,22.83,0,0,1,735.42,221l-15-90.21L676.38,239H612.23l89.62-220.3h47.06a19,19,0,0,1,13,4.94,22.4,22.4,0,0,1,7,13l15,90.22L828,18.73Z" transform="translate(-78.47 -15.13)"/><rect class="cls-2" x="846.8" y="3.6" width="76.26" height="76.26"/></svg>