<svg xmlns="http://www.w3.org/2000/svg" xmlns:xlink="http://www.w3.org/1999/xlink" viewBox="0 0 2712.88 2800"><defs><style>.cls-1{opacity:0.3;fill:url(#linear-gradient);}.cls-2{fill:url(#linear-gradient-2);}.cls-10,.cls-12,.cls-3,.cls-9{fill:#fff;}.cls-3{opacity:0.43;}.cls-4{fill:url(#linear-gradient-3);}.cls-5{fill:url(#linear-gradient-4);}.cls-6{fill:url(#linear-gradient-5);}.cls-7{fill:url(#linear-gradient-6);}.cls-8{fill:url(#linear-gradient-7);}.cls-11,.cls-9{opacity:0.6;}.cls-10{opacity:0.78;}.cls-13{fill:url(#linear-gradient-8);}.cls-14{fill:url(#linear-gradient-9);}.cls-15{fill:url(#linear-gradient-10);}.cls-16{fill:url(#linear-gradient-11);}.cls-17{fill:url(#linear-gradient-12);}.cls-18{fill:url(#linear-gradient-13);}.cls-19{fill:url(#linear-gradient-14);}.cls-20{fill:url(#linear-gradient-15);}.cls-21{fill:url(#linear-gradient-16);}.cls-22{fill:url(#linear-gradient-17);}.cls-23{fill:url(#linear-gradient-18);}.cls-24{fill:url(#linear-gradient-19);}.cls-25{fill:url(#linear-gradient-20);}.cls-26{fill:url(#linear-gradient-21);}.cls-27{fill:url(#linear-gradient-22);}.cls-28{fill:url(#linear-gradient-23);}.cls-29{fill:url(#linear-gradient-24);}.cls-30{fill:url(#linear-gradient-25);}.cls-31{fill:url(#linear-gradient-26);}.cls-32{fill:url(#linear-gradient-27);}.cls-33{fill:url(#linear-gradient-28);}.cls-34{fill:url(#linear-gradient-29);}.cls-35{fill:url(#linear-gradient-30);}.cls-36{fill:url(#linear-gradient-31);}.cls-37{fill:url(#linear-gradient-32);}.cls-38{fill:url(#linear-gradient-33);}.cls-39{fill:url(#linear-gradient-34);}.cls-40{fill:url(#linear-gradient-35);}.cls-41{fill:url(#linear-gradient-36);}.cls-42{fill:url(#linear-gradient-37);}.cls-43{fill:url(#linear-gradient-38);}.cls-44{fill:url(#linear-gradient-39);}.cls-45{fill:url(#linear-gradient-40);}.cls-46{fill:url(#linear-gradient-41);}.cls-47{fill:url(#linear-gradient-42);}.cls-48{fill:url(#linear-gradient-43);}.cls-49{fill:url(#linear-gradient-44);}.cls-50{fill:url(#linear-gradient-45);}.cls-51{fill:url(#linear-gradient-46);}.cls-52{fill:url(#linear-gradient-47);}.cls-53{fill:url(#linear-gradient-48);}.cls-54{fill:url(#linear-gradient-49);}.cls-55{fill:url(#linear-gradient-50);}.cls-56{fill:url(#linear-gradient-51);}.cls-57{fill:url(#linear-gradient-52);}.cls-58{fill:url(#linear-gradient-53);}.cls-59{fill:url(#linear-gradient-54);}.cls-60{fill:url(#linear-gradient-55);}.cls-61{fill:url(#linear-gradient-56);}.cls-62{fill:url(#linear-gradient-57);}.cls-63{fill:url(#linear-gradient-58);}.cls-64{fill:url(#linear-gradient-59);}.cls-65{fill:url(#linear-gradient-60);}.cls-66{fill:url(#linear-gradient-61);}.cls-67{fill:url(#linear-gradient-62);}.cls-68{fill:url(#linear-gradient-63);}.cls-69{fill:url(#linear-gradient-64);}.cls-70{fill:url(#linear-gradient-65);}.cls-71{fill:url(#linear-gradient-66);}.cls-72{fill:url(#linear-gradient-67);}.cls-73{fill:url(#linear-gradient-68);}.cls-74{fill:url(#linear-gradient-69);}.cls-75{fill:url(#linear-gradient-70);}.cls-76{fill:url(#linear-gradient-71);}.cls-77{fill:url(#linear-gradient-72);}.cls-78{fill:url(#linear-gradient-73);}.cls-79{fill:url(#linear-gradient-74);}.cls-80{fill:url(#linear-gradient-75);}.cls-81{fill:url(#linear-gradient-76);}.cls-82{fill:url(#linear-gradient-77);}.cls-83{fill:url(#linear-gradient-78);}.cls-84{fill:url(#linear-gradient-79);}.cls-85{fill:url(#linear-gradient-80);}.cls-86{fill:url(#linear-gradient-81);}.cls-87{fill:url(#linear-gradient-82);}.cls-88{fill:url(#linear-gradient-83);}.cls-89{fill:url(#linear-gradient-84);}.cls-90{fill:url(#linear-gradient-85);}.cls-91{fill:url(#linear-gradient-86);}.cls-92{fill:url(#linear-gradient-87);}.cls-93{fill:url(#linear-gradient-88);}.cls-94{fill:url(#linear-gradient-89);}.cls-95{fill:url(#linear-gradient-90);}.cls-96{fill:url(#linear-gradient-91);}.cls-97{fill:url(#linear-gradient-92);}</style><linearGradient id="linear-gradient" x1="3443.84" y1="3267.13" x2="1407.27" y2="1485.13" gradientUnits="userSpaceOnUse"><stop offset="0" stop-color="#b37cff"/><stop offset="1" stop-color="#f895e7"/></linearGradient><linearGradient id="linear-gradient-2" x1="-852.72" y1="1222.33" x2="-2063.39" y2="2752.18" gradientTransform="matrix(-0.89, -0.46, -0.46, 0.89, 463.54, 216.98)" gradientUnits="userSpaceOnUse"><stop offset="0" stop-color="#cb236d"/><stop offset="1" stop-color="#4c246d"/></linearGradient><linearGradient id="linear-gradient-3" x1="-2695.58" y1="-6.85" x2="-3988.08" y2="1626.4" gradientTransform="matrix(-0.88, -0.47, -0.47, 0.88, -1521.88, 125.55)" gradientUnits="userSpaceOnUse"><stop offset="0" stop-color="#a737d5"/><stop offset="1" stop-color="#ef497a"/></linearGradient><linearGradient id="linear-gradient-4" x1="1835.82" y1="3042.25" x2="1701.49" y2="-933.94" gradientUnits="userSpaceOnUse"><stop offset="0" stop-color="#2b3582"/><stop offset="1" stop-color="#150e42"/></linearGradient><linearGradient id="linear-gradient-5" x1="569.17" y1="2680.44" x2="2091.59" y2="3647.63" gradientTransform="matrix(1, 0, 0, 1, 0, 0)" xlink:href="#linear-gradient-3"/><linearGradient id="linear-gradient-6" x1="696.96" y1="2479.29" x2="2219.38" y2="3446.48" gradientTransform="matrix(1, 0, 0, 1, 0, 0)" xlink:href="#linear-gradient-3"/><linearGradient id="linear-gradient-7" x1="2668.87" y1="720.06" x2="746.28" y2="3487.19" gradientUnits="userSpaceOnUse"><stop offset="0" stop-color="#53d8ff"/><stop offset="1" stop-color="#3840f7"/></linearGradient><linearGradient id="linear-gradient-8" x1="2046.31" y1="268.98" x2="1374.52" y2="1152.71" xlink:href="#linear-gradient-4"/><linearGradient id="linear-gradient-9" x1="2120" y1="325" x2="1448.21" y2="1208.73" xlink:href="#linear-gradient-4"/><linearGradient id="linear-gradient-10" x1="2035.35" y1="379.05" x2="1571.48" y2="1230.79" xlink:href="#linear-gradient-7"/><linearGradient id="linear-gradient-11" x1="1905.41" y1="2666.6" x2="2503.64" y2="2666.6" xlink:href="#linear-gradient-4"/><linearGradient id="linear-gradient-12" x1="2141.15" y1="268.45" x2="2041.26" y2="1251.86" gradientTransform="matrix(1, 0, 0, 1, 0, 0)" xlink:href="#linear-gradient-3"/><linearGradient id="linear-gradient-13" x1="1746.79" y1="483.5" x2="2485.39" y2="483.5" xlink:href="#linear-gradient"/><linearGradient id="linear-gradient-14" x1="1790.31" y1="279.82" x2="1908.44" y2="14.85" gradientTransform="matrix(1, 0, 0, 1, 0, 0)" xlink:href="#linear-gradient-3"/><linearGradient id="linear-gradient-15" x1="1838.04" y1="301.1" x2="1956.17" y2="36.13" gradientTransform="matrix(1, 0, 0, 1, 0, 0)" xlink:href="#linear-gradient-3"/><linearGradient id="linear-gradient-16" x1="1880.2" y1="319.9" x2="1998.33" y2="54.93" gradientTransform="matrix(1, 0, 0, 1, 0, 0)" xlink:href="#linear-gradient-3"/><linearGradient id="linear-gradient-17" x1="1927.92" y1="341.17" x2="2046.06" y2="76.21" gradientTransform="matrix(1, 0, 0, 1, 0, 0)" xlink:href="#linear-gradient-3"/><linearGradient id="linear-gradient-18" x1="1970.08" y1="359.97" x2="2088.21" y2="95" gradientTransform="matrix(1, 0, 0, 1, 0, 0)" xlink:href="#linear-gradient-3"/><linearGradient id="linear-gradient-19" x1="2017.81" y1="381.25" x2="2135.94" y2="116.28" gradientTransform="matrix(1, 0, 0, 1, 0, 0)" xlink:href="#linear-gradient-3"/><linearGradient id="linear-gradient-20" x1="2059.97" y1="400.05" x2="2178.1" y2="135.08" gradientTransform="matrix(1, 0, 0, 1, 0, 0)" xlink:href="#linear-gradient-3"/><linearGradient id="linear-gradient-21" x1="2107.7" y1="421.32" x2="2225.83" y2="156.36" gradientTransform="matrix(1, 0, 0, 1, 0, 0)" xlink:href="#linear-gradient-3"/><linearGradient id="linear-gradient-22" x1="2149.86" y1="440.12" x2="2267.99" y2="175.15" gradientTransform="matrix(1, 0, 0, 1, 0, 0)" xlink:href="#linear-gradient-3"/><linearGradient id="linear-gradient-23" x1="2197.59" y1="461.4" x2="2315.72" y2="196.43" gradientTransform="matrix(1, 0, 0, 1, 0, 0)" xlink:href="#linear-gradient-3"/><linearGradient id="linear-gradient-24" x1="2239.75" y1="480.2" x2="2357.88" y2="215.23" gradientTransform="matrix(1, 0, 0, 1, 0, 0)" xlink:href="#linear-gradient-3"/><linearGradient id="linear-gradient-25" x1="2287.47" y1="501.47" x2="2405.61" y2="236.51" gradientTransform="matrix(1, 0, 0, 1, 0, 0)" xlink:href="#linear-gradient-3"/><linearGradient id="linear-gradient-26" x1="1085.29" y1="-168.36" x2="2029.18" y2="528.93" gradientUnits="userSpaceOnUse"><stop offset="0" stop-color="#fdf53f"/><stop offset="0.66" stop-color="#e57a58"/><stop offset="1" stop-color="#d93c65"/></linearGradient><linearGradient id="linear-gradient-27" x1="3076.08" y1="612.71" x2="1800.56" y2="714.75" xlink:href="#linear-gradient-26"/><linearGradient id="linear-gradient-28" x1="3076.49" y1="617.75" x2="1800.97" y2="719.79" xlink:href="#linear-gradient-26"/><linearGradient id="linear-gradient-29" x1="3076.82" y1="621.94" x2="1801.3" y2="723.98" xlink:href="#linear-gradient-26"/><linearGradient id="linear-gradient-30" x1="3077.17" y1="626.26" x2="1801.64" y2="728.3" xlink:href="#linear-gradient-26"/><linearGradient id="linear-gradient-31" x1="3077.48" y1="630.25" x2="1801.96" y2="732.29" xlink:href="#linear-gradient-26"/><linearGradient id="linear-gradient-32" x1="3077.83" y1="634.56" x2="1802.31" y2="736.6" xlink:href="#linear-gradient-26"/><linearGradient id="linear-gradient-33" x1="3078.17" y1="638.75" x2="1802.64" y2="740.8" xlink:href="#linear-gradient-26"/><linearGradient id="linear-gradient-34" x1="3078.54" y1="643.43" x2="1803.02" y2="745.47" xlink:href="#linear-gradient-26"/><linearGradient id="linear-gradient-35" x1="3078.82" y1="646.99" x2="1803.3" y2="749.03" xlink:href="#linear-gradient-26"/><linearGradient id="linear-gradient-36" x1="3079.16" y1="651.18" x2="1803.64" y2="753.22" xlink:href="#linear-gradient-26"/><linearGradient id="linear-gradient-37" x1="3079.92" y1="660.7" x2="1804.4" y2="762.74" xlink:href="#linear-gradient-26"/><linearGradient id="linear-gradient-38" x1="3079.53" y1="655.86" x2="1804.01" y2="757.9" xlink:href="#linear-gradient-26"/><linearGradient id="linear-gradient-39" x1="2117.19" y1="1812.87" x2="2282.16" y2="1621.38" gradientTransform="translate(287.29 -1391) rotate(29.82)" gradientUnits="userSpaceOnUse"><stop offset="0" stop-color="#fdf53f"/><stop offset="1" stop-color="#d93c65"/></linearGradient><linearGradient id="linear-gradient-40" x1="2375.39" y1="1481.72" x2="1887.55" y2="2218.69" xlink:href="#linear-gradient-39"/><linearGradient id="linear-gradient-41" x1="2360.83" y1="1502.83" x2="2101.07" y2="1938.92" gradientTransform="translate(-1163.53 186.15) rotate(-15.18)" xlink:href="#linear-gradient-39"/><linearGradient id="linear-gradient-42" x1="2342.61" y1="1811.73" x2="2629.8" y2="1478.38" gradientTransform="translate(210.72 -1670.99) rotate(29.82)" xlink:href="#linear-gradient-39"/><linearGradient id="linear-gradient-43" x1="2792.08" y1="1235.25" x2="1942.85" y2="2518.2" gradientTransform="translate(210.72 -1670.99) rotate(29.82)" xlink:href="#linear-gradient-39"/><linearGradient id="linear-gradient-44" x1="2766.75" y1="1272.01" x2="2314.55" y2="2031.18" gradientTransform="translate(-1163.53 186.15) rotate(-15.18)" xlink:href="#linear-gradient-39"/><linearGradient id="linear-gradient-45" x1="2481.79" y1="2299.82" x2="2777.3" y2="1956.81" gradientTransform="translate(-1662.09 -268.85) rotate(-15.18)" xlink:href="#linear-gradient-39"/><linearGradient id="linear-gradient-46" x1="2944.29" y1="1706.63" x2="2070.44" y2="3026.76" gradientTransform="translate(588.15 -1736.44) rotate(29.82)" xlink:href="#linear-gradient-39"/><linearGradient id="linear-gradient-47" x1="2918.22" y1="1744.46" x2="2452.91" y2="2525.62" gradientTransform="translate(-1163.53 186.15) rotate(-15.18)" xlink:href="#linear-gradient-39"/><linearGradient id="linear-gradient-48" x1="2845.01" y1="1906.15" x2="3061.53" y2="1654.83" gradientTransform="translate(-988.94 -357.31) rotate(-5.77)" xlink:href="#linear-gradient-39"/><linearGradient id="linear-gradient-49" x1="3183.88" y1="1471.53" x2="2543.62" y2="2438.78" gradientTransform="translate(387.9 -1980.27) rotate(29.82)" xlink:href="#linear-gradient-39"/><linearGradient id="linear-gradient-50" x1="3164.78" y1="1499.25" x2="2823.86" y2="2071.6" gradientTransform="translate(-1163.53 186.15) rotate(-15.18)" xlink:href="#linear-gradient-39"/><linearGradient id="linear-gradient-51" x1="3760.32" y1="2740.73" x2="3760.32" y2="4268.19" gradientTransform="translate(-347.84 -41.61) rotate(19.68)" xlink:href="#linear-gradient-2"/><linearGradient id="linear-gradient-52" x1="2864.48" y1="1382.15" x2="2864.48" y2="2909.68" gradientTransform="matrix(1, 0, 0, 1, 0, 0)" xlink:href="#linear-gradient-2"/><linearGradient id="linear-gradient-53" x1="661.3" y1="1697.56" x2="532.13" y2="2114.88" gradientTransform="translate(1290.1)" xlink:href="#linear-gradient-7"/><linearGradient id="linear-gradient-54" x1="192.17" y1="3264.96" x2="198.79" y2="2814.52" gradientTransform="translate(1290.1)" xlink:href="#linear-gradient-4"/><linearGradient id="linear-gradient-55" x1="163.62" y1="3052.36" x2="139.62" y2="3261.77" gradientTransform="translate(1290.1)" gradientUnits="userSpaceOnUse"><stop offset="0" stop-color="#f9b776"/><stop offset="1" stop-color="#f47960"/></linearGradient><linearGradient id="linear-gradient-56" x1="410.32" y1="3268.17" x2="416.95" y2="2817.73" gradientTransform="translate(1290.1)" xlink:href="#linear-gradient-4"/><linearGradient id="linear-gradient-57" x1="862.26" y1="1759.76" x2="733.09" y2="2177.08" gradientTransform="translate(1290.1)" xlink:href="#linear-gradient-7"/><linearGradient id="linear-gradient-58" x1="462.16" y1="3043.87" x2="438.17" y2="3253.28" gradientTransform="translate(993.21 65.77) rotate(-3.61)" xlink:href="#linear-gradient-55"/><linearGradient id="linear-gradient-59" x1="1084.09" y1="2879.78" x2="2451.78" y2="1202.08" gradientTransform="matrix(-1, 0, 0, 1, 2705.84, 0)" xlink:href="#linear-gradient-4"/><linearGradient id="linear-gradient-60" x1="635.08" y1="2022.77" x2="902.42" y2="2022.77" xlink:href="#linear-gradient-55"/><linearGradient id="linear-gradient-61" x1="995.54" y1="1812.86" x2="1011.26" y2="2214.41" gradientTransform="translate(1290.1)" xlink:href="#linear-gradient-2"/><linearGradient id="linear-gradient-62" x1="1593.75" y1="1945.14" x2="1106.87" y2="2614.19" gradientTransform="matrix(1, 0, 0, 1, 0, 0)" xlink:href="#linear-gradient-39"/><linearGradient id="linear-gradient-63" x1="800.98" y1="1766.64" x2="381.57" y2="1975.28" xlink:href="#linear-gradient-55"/><linearGradient id="linear-gradient-64" x1="794.84" y1="1714.32" x2="732.98" y2="1778.92" xlink:href="#linear-gradient-55"/><linearGradient id="linear-gradient-65" x1="802.97" y1="1764.17" x2="383.57" y2="1972.8" xlink:href="#linear-gradient-55"/><linearGradient id="linear-gradient-66" x1="1620.88" y1="1964.89" x2="1134" y2="2633.93" gradientTransform="matrix(1, 0, 0, 1, 0, 0)" xlink:href="#linear-gradient-39"/><linearGradient id="linear-gradient-67" x1="259.34" y1="1831.79" x2="315.07" y2="1679.61" xlink:href="#linear-gradient-55"/><linearGradient id="linear-gradient-68" x1="535.51" y1="2008.77" x2="121.18" y2="2728.7" xlink:href="#linear-gradient-55"/><linearGradient id="linear-gradient-69" x1="1661.28" y1="1610.2" x2="1399.62" y2="2236.19" gradientTransform="matrix(1, 0, 0, 1, 0, 0)" xlink:href="#linear-gradient-39"/><linearGradient id="linear-gradient-70" x1="1674.78" y1="1615.84" x2="1413.13" y2="2241.83" gradientTransform="matrix(1, 0, 0, 1, 0, 0)" xlink:href="#linear-gradient-39"/><linearGradient id="linear-gradient-71" x1="396.32" y1="1603.51" x2="64.27" y2="1867.97" xlink:href="#linear-gradient-55"/><linearGradient id="linear-gradient-72" x1="268.13" y1="1516.51" x2="420.33" y2="1712.45" gradientTransform="translate(1290.1)" xlink:href="#linear-gradient-4"/><linearGradient id="linear-gradient-73" x1="362.9" y1="1589.02" x2="199.49" y2="1714.05" xlink:href="#linear-gradient-55"/><linearGradient id="linear-gradient-74" x1="630.24" y1="2090.37" x2="696.12" y2="2090.37" xlink:href="#linear-gradient-55"/><linearGradient id="linear-gradient-75" x1="1116.38" y1="1950.22" x2="1670.63" y2="2245.29" gradientTransform="translate(1290.1)" xlink:href="#linear-gradient-2"/><linearGradient id="linear-gradient-76" x1="1233.25" y1="1755.38" x2="1190.38" y2="1626.77" xlink:href="#linear-gradient-55"/><linearGradient id="linear-gradient-77" x1="1224.04" y1="2130.55" x2="1674.87" y2="2130.55" gradientTransform="translate(1290.1)" gradientUnits="userSpaceOnUse"><stop offset="0" stop-color="#9cfffb"/><stop offset="1" stop-color="#9bfffa"/></linearGradient><linearGradient id="linear-gradient-78" x1="1245.08" y1="2127.08" x2="1675.31" y2="2127.08" xlink:href="#linear-gradient-77"/><linearGradient id="linear-gradient-79" x1="1466.96" y1="2084.34" x2="1558.42" y2="2494.46" gradientTransform="translate(1290.1)" xlink:href="#linear-gradient-39"/><linearGradient id="linear-gradient-80" x1="1195.48" y1="1814.93" x2="1791.36" y2="2132.16" gradientTransform="translate(1290.1)" xlink:href="#linear-gradient-2"/><linearGradient id="linear-gradient-81" x1="2991.23" y1="1639.45" x2="2577.21" y2="2113.09" gradientTransform="matrix(1, 0, 0, 1, 0, 0)" xlink:href="#linear-gradient-2"/><linearGradient id="linear-gradient-82" x1="1493.52" y1="2129.99" x2="1354.2" y2="2397.92" xlink:href="#linear-gradient-55"/><linearGradient id="linear-gradient-83" x1="4818.98" y1="5486.66" x2="4664.89" y2="5690.5" gradientTransform="matrix(-0.69, -0.73, -0.73, 0.69, 9787.37, 1318.79)" xlink:href="#linear-gradient-55"/><linearGradient id="linear-gradient-84" x1="4701.3" y1="5535.61" x2="4885.36" y2="5535.61" gradientTransform="matrix(-0.69, -0.73, -0.73, 0.69, 9787.37, 1318.79)" xlink:href="#linear-gradient-4"/><linearGradient id="linear-gradient-85" x1="4593.3" y1="5648.09" x2="4716.89" y2="5521.28" gradientTransform="matrix(-0.69, -0.73, -0.73, 0.69, 9787.37, 1318.79)" xlink:href="#linear-gradient-55"/><linearGradient id="linear-gradient-86" x1="2133.69" y1="2897.18" x2="2133.69" y2="3285.8" gradientTransform="matrix(-1, 0, 0, 1, 4753.76, 0)" xlink:href="#linear-gradient-4"/><linearGradient id="linear-gradient-87" x1="2037.94" y1="3208.21" x2="2224.03" y2="3208.21" gradientTransform="matrix(-1, 0, 0, 1, 4753.76, 0)" xlink:href="#linear-gradient-2"/><linearGradient id="linear-gradient-88" x1="2055.63" y1="3155.81" x2="2109.57" y2="3155.81" gradientTransform="matrix(-1, 0, 0, 1, 4753.76, 0)" xlink:href="#linear-gradient-55"/><linearGradient id="linear-gradient-89" x1="1692.89" y1="2897.18" x2="1692.89" y2="3285.8" gradientTransform="matrix(-1, 0, 0, 1, 4753.76, 0)" xlink:href="#linear-gradient-4"/><linearGradient id="linear-gradient-90" x1="1656.73" y1="3185.11" x2="1764.44" y2="3185.11" gradientTransform="matrix(-1, 0, 0, 1, 4753.76, 0)" xlink:href="#linear-gradient-2"/><linearGradient id="linear-gradient-91" x1="1712.72" y1="3110.85" x2="1777.18" y2="3110.85" gradientTransform="matrix(-1, 0, 0, 1, 4753.76, 0)" xlink:href="#linear-gradient-55"/><linearGradient id="linear-gradient-92" x1="3371.21" y1="1209.45" x2="2655.83" y2="3067.44" gradientUnits="userSpaceOnUse"><stop offset="0" stop-color="#53d8ff"/><stop offset="0.21" stop-color="#4db9fd"/><stop offset="1" stop-color="#3840f7"/></linearGradient></defs><g id="Illustration"><path class="cls-1" d="M3097.73,2341.66c-263.21,619.75-964.33,966.93-1572.35,873.28-98.93-15.24-370.17-60.63-610.31-274.79-462.3-412.27-561.16-1228.62-188.24-1803.92,271.41-418.71,758-656.07,1220.27-644.2,99.58,2.56,481.22,18.32,816.62,294.88,49.26,40.62,157.91,137.15,255.84,290.28C3249.5,1436.78,3269.26,1937.76,3097.73,2341.66Z" transform="translate(-498.56 -455)"/><path class="cls-2" d="M588.85,1564.2c2.82-12.86,19.73-13.09,22.79-.29,29.55,123.72,116.44,445.51,256.25,618.35,227.65,281.43,374.13,733.45,220.55,962.48C1088.44,3144.74,281.86,2965.53,588.85,1564.2Z" transform="translate(-498.56 -455)"/><path class="cls-3" d="M608,1740.22c.21,4,.68,7.34,1,10.91l1.27,10.53,2.77,21c1.94,14,4.07,27.92,6.2,41.86q6.54,41.81,14,83.42c9.92,55.5,21.23,110.69,33.3,165.69s25.43,109.69,39.92,164,29.78,108.43,46.66,162c33.57,107.13,72.56,212.38,118.25,314.24,23.34,50.65,47.92,100.67,75.12,149,27.52,48.15,56.94,95,89.39,139.41a2,2,0,0,0,2.89.37,2.37,2.37,0,0,0,.39-3.06l0,0q-46.08-68.31-85.33-141.42c-26.33-48.57-50-98.75-72.48-149.53s-43-102.57-62.43-154.81-36.85-105.37-54-158.56C731,2288.68,702.37,2180.18,676.54,2071q-19.21-82-35.49-164.75-8.22-41.35-15.66-82.89l-7.1-41.59-3.35-20.83-1.57-10.42c-.46-3.42-1-7.09-1.3-10.1l-.05-.5a2.09,2.09,0,0,0-2.24-2A2.16,2.16,0,0,0,608,1740.22Z" transform="translate(-498.56 -455)"/><path class="cls-4" d="M792.07,1237.19c3.08-13.71,20.8-13.74,23.87,0,29.73,132.51,117.53,477.26,262.26,663.54,235.64,303.31,384.56,787.89,221.41,1030.69C1299.61,2931.38,456.55,2730.36,792.07,1237.19Z" transform="translate(-498.56 -455)"/><path class="cls-3" d="M810.29,1425.43c.18,4.32.64,7.85,1,11.68l1.23,11.25,2.69,22.46c1.88,15,4,29.87,6.06,44.79q6.43,44.73,13.77,89.28c9.83,59.4,21.12,118.49,33.21,177.39s25.53,117.46,40.16,175.67,30.11,116.17,47.26,173.56c34.09,114.84,73.89,227.73,120.75,337.07,23.95,54.38,49.2,108.11,77.22,160.1,28.35,51.74,58.71,102.18,92.28,150a2.06,2.06,0,0,0,3.08.43,2.6,2.6,0,0,0,.44-3.32l0,0q-47.55-73.53-87.92-152.09c-27.09-52.2-51.4-106.08-74.41-160.59s-44-110.08-63.83-166.1-37.55-113-55-170C933.83,2012.69,905,1896.47,879,1779.49q-19.32-87.79-35.55-176.39-8.22-44.26-15.6-88.72l-7-44.51-3.31-22.28-1.54-11.15c-.45-3.66-1-7.59-1.27-10.8l0-.54a2.25,2.25,0,0,0-2.37-2.17A2.33,2.33,0,0,0,810.29,1425.43Z" transform="translate(-498.56 -455)"/><path class="cls-5" d="M890.76,947.45A171.75,171.75,0,0,1,1062.51,775.7H2523.05a151.32,151.32,0,0,1,151.11,143.62L2782,3036.82a111.59,111.59,0,0,1-109.41,117.24l-1674,30.42a105.91,105.91,0,0,1-107.84-105.89Z" transform="translate(-498.56 -455)"/><path class="cls-6" d="M1243.26,3148.48h-.06l-187.3-2.42c-62.63-.81-113.59-52.43-113.59-115.06V2748.2a4,4,0,0,1,8,0V3031c0,58.28,47.41,106.31,105.69,107.07l187.3,2.42a4,4,0,0,1,0,8Z" transform="translate(-498.56 -455)"/><path class="cls-7" d="M946.31,2664.6a4,4,0,0,1-4-4v-45.79a4,4,0,0,1,8,0v45.79A4,4,0,0,1,946.31,2664.6Z" transform="translate(-498.56 -455)"/><path class="cls-8" d="M1010.42,808.29A49.88,49.88,0,0,1,1067,758.54c199.45,27,885.31,110.7,1452.36,67.17a46.12,46.12,0,0,1,49.68,43.5l113,2127a53.08,53.08,0,0,1-49.87,55.82c-238.49,14.12-1220.68,68.68-1571,32a42.05,42.05,0,0,1-37.63-41.62Z" transform="translate(-498.56 -455)"/><path class="cls-9" d="M1033.91,861.59a48,48,0,0,1,54.45-47.88c191.94,26,852,106.53,1397.68,64.64a44.39,44.39,0,0,1,47.8,41.87l108.79,2046.85a51.09,51.09,0,0,1-48,53.73c-229.51,13.58-1174.71,66.08-1511.85,30.77a40.47,40.47,0,0,1-36.22-40.05Z" transform="translate(-498.56 -455)"/><path class="cls-10" d="M1211.59,1019.4,1232,1458.23a27.9,27.9,0,0,0,27.07,26.61c81.27,2.29,334.52,8.47,477.51,1a31.14,31.14,0,0,0,29.5-30.11c2.73-82.3,8.7-321.83-10.06-422a35.16,35.16,0,0,0-33.37-28.6l-480.37-16.8A29.67,29.67,0,0,0,1211.59,1019.4Z" transform="translate(-498.56 -455)"/><g class="cls-11"><path class="cls-12" d="M2415,1057.6c8.52,0,15.29-6.62,15-14.72s-7.39-14.84-15.9-15l-530-9.44c-8.51-.15-13.16,6.29-10.34,14.32l3.61,10.24c2.83,8,12.11,14.6,20.62,14.6Z" transform="translate(-498.56 -455)"/></g><g class="cls-11"><path class="cls-12" d="M1884.15,1155.15c-8.51-.15-13.16,6.3-10.34,14.33l3.61,10.24c2.83,8,12.11,14.6,20.62,14.6h517c8.52,0,15.29-6.63,15-14.72s-7.39-14.85-15.9-15Z" transform="translate(-498.56 -455)"/></g><g class="cls-11"><path class="cls-12" d="M1884.15,1304.86c-8.51-.15-13.16,6.3-10.34,14.33l3.61,10.24c2.83,8,12.11,14.6,20.62,14.6h517c8.52,0,15.29-6.63,15-14.72s-7.39-14.85-15.9-15Z" transform="translate(-498.56 -455)"/></g><g class="cls-11"><path class="cls-12" d="M2466.2,1622.66c8.51,0,15-6.63,14.5-14.72s-7.93-14.78-16.45-14.85l-1237.32-9.75c-8.51-.07-11.14,5.33-5.84,12l12.12,15.22c5.31,6.66,16.61,12.11,25.12,12.11Z" transform="translate(-498.56 -455)"/></g><path class="cls-12" d="M1355.77,2192.16h-.29l-104.15-1c-14.88-.15-27.16-10.39-28.57-23.82L1213.6,2080a19,19,0,0,1,4.49-14.29,22.88,22.88,0,0,1,15.94-7.86h0c8.77-.6,21.13-1.65,34.21-2.77,27.55-2.34,61.83-5.26,81.12-5.5,14-.07,25.87,8.21,29.16,20.4,5.43,20.06,5,58,3.92,98.48C1382.11,2181.56,1370.17,2192.16,1355.77,2192.16Zm-121.2-126.37a14.84,14.84,0,0,0-10.36,5,11,11,0,0,0-2.65,8.3l9.15,87.39c1,9.38,9.89,16.54,20.7,16.65l104.15,1h.21c10.09,0,18.45-7.11,18.68-15.94,1-39.84,1.5-77.17-3.65-96.2-2.3-8.52-11.17-14.45-21.34-14.48-19,.23-53.12,3.14-80.54,5.47-13.12,1.12-25.51,2.18-34.35,2.78Z" transform="translate(-498.56 -455)"/><path class="cls-9" d="M1245.78,2074.81c21.88-1.5,69.43-6.32,92-6.6,9.55-.12,17.93,5.65,20.18,13.94,4.35,16.09,3.77,48.17,3,77.78-.23,8.87-8.37,16-18.32,15.85l-83.23-.79c-10.24-.1-18.73-7.08-19.69-16.17l-7.31-69.83C1231.66,2081.76,1237.67,2075.36,1245.78,2074.81Z" transform="translate(-498.56 -455)"/><g class="cls-11"><path class="cls-12" d="M1447.25,2134.13a25.87,25.87,0,0,0,25.23,19.27l963.66-8.22a19.56,19.56,0,0,0-.08-39.11l-963.69-4.4A25.86,25.86,0,0,0,1447.25,2134.13Z" transform="translate(-498.56 -455)"/></g><path class="cls-12" d="M1349,1963.39h-.29l-104.15-1c-14.88-.14-27.16-10.38-28.57-23.81l-9.16-87.39a19,19,0,0,1,4.49-14.28,22.84,22.84,0,0,1,15.93-7.86h0c8.78-.6,21.14-1.65,34.22-2.77,27.54-2.34,61.83-5.26,81.12-5.5,14-.07,25.86,8.21,29.16,20.4,5.43,20.06,5,58,3.92,98.48C1375.29,1952.8,1363.36,1963.39,1349,1963.39ZM1227.76,1837a14.82,14.82,0,0,0-10.36,5,11,11,0,0,0-2.65,8.3l9.15,87.39c1,9.38,9.88,16.54,20.7,16.65l104.15,1h.21c10.09,0,18.45-7.11,18.67-15.94,1-39.84,1.51-77.17-3.64-96.2-2.3-8.52-11.17-14.45-21.34-14.49-19,.24-53.13,3.15-80.54,5.48-13.12,1.12-25.51,2.17-34.35,2.78Z" transform="translate(-498.56 -455)"/><path class="cls-9" d="M1239,1846.05c21.88-1.5,69.44-6.33,92-6.61,9.56-.12,17.94,5.66,20.18,14,4.36,16.09,3.78,48.17,3,77.78-.22,8.87-8.37,15.95-18.31,15.85l-83.23-.8c-10.24-.09-18.74-7.07-19.69-16.16l-7.32-69.84C1224.85,1853,1230.85,1846.6,1239,1846.05Z" transform="translate(-498.56 -455)"/><g class="cls-11"><path class="cls-12" d="M1440.44,1905.37a25.85,25.85,0,0,0,25.22,19.26l963.67-8.21a19.56,19.56,0,0,0-.08-39.11l-963.69-4.4A25.86,25.86,0,0,0,1440.44,1905.37Z" transform="translate(-498.56 -455)"/></g><path class="cls-12" d="M1355.77,2415.38h-.29l-104.15-1c-14.88-.14-27.16-10.38-28.57-23.81l-9.16-87.39a19,19,0,0,1,4.49-14.28A22.89,22.89,0,0,1,1234,2281h0c8.77-.59,21.13-1.65,34.21-2.76,27.55-2.35,61.83-5.26,81.12-5.51h.42c13.7,0,25.48,8.34,28.74,20.4,5.43,20.06,5,58,3.92,98.49C1382.11,2404.79,1370.17,2415.38,1355.77,2415.38ZM1234.57,2289a14.8,14.8,0,0,0-10.36,5,11,11,0,0,0-2.65,8.29l9.15,87.39c1,9.39,9.89,16.55,20.7,16.65l104.15,1h.21c10.09,0,18.45-7.11,18.68-15.93,1-39.84,1.5-77.18-3.65-96.2-2.3-8.52-11.3-14.65-21.34-14.49-19,.24-53.12,3.14-80.54,5.48-13.12,1.12-25.51,2.17-34.35,2.78Z" transform="translate(-498.56 -455)"/><path class="cls-9" d="M1245.78,2298c21.88-1.5,69.43-6.33,92-6.61,9.55-.12,17.93,5.66,20.18,13.94,4.35,16.1,3.77,48.18,3,77.79-.23,8.87-8.37,16-18.32,15.85l-83.23-.8c-10.24-.1-18.73-7.08-19.69-16.17l-7.31-69.83C1231.66,2305,1237.67,2298.59,1245.78,2298Z" transform="translate(-498.56 -455)"/><g class="cls-11"><path class="cls-12" d="M1447.25,2357.36a25.86,25.86,0,0,0,25.23,19.26l963.66-8.22a19.56,19.56,0,0,0-.08-39.11l-963.69-4.39A25.86,25.86,0,0,0,1447.25,2357.36Z" transform="translate(-498.56 -455)"/></g><path class="cls-12" d="M1355.77,2638.61h-.29l-104.15-1c-14.88-.14-27.16-10.38-28.57-23.81l-9.16-87.39a19.05,19.05,0,0,1,4.49-14.29,22.88,22.88,0,0,1,15.94-7.86h0c8.77-.6,21.13-1.65,34.21-2.76,27.55-2.35,61.83-5.27,81.12-5.51h.42c13.7,0,25.48,8.34,28.74,20.4,5.43,20.06,5,58,3.92,98.49C1382.11,2628,1370.17,2638.61,1355.77,2638.61Zm-121.2-126.37a14.84,14.84,0,0,0-10.36,5,11,11,0,0,0-2.65,8.3l9.15,87.39c1,9.39,9.89,16.55,20.7,16.65l104.15,1h.21c10.09,0,18.45-7.11,18.68-15.94,1-39.84,1.5-77.17-3.65-96.2-2.3-8.52-11.3-14.67-21.34-14.48-19,.23-53.12,3.14-80.54,5.48-13.12,1.11-25.51,2.17-34.35,2.77Z" transform="translate(-498.56 -455)"/><path class="cls-9" d="M1245.78,2521.26c21.88-1.49,69.43-6.32,92-6.6,9.55-.12,17.93,5.65,20.18,13.94,4.35,16.09,3.77,48.17,3,77.78-.23,8.87-8.37,15.95-18.32,15.86l-83.23-.8c-10.24-.1-18.73-7.08-19.69-16.17l-7.31-69.83C1231.66,2528.21,1237.67,2521.82,1245.78,2521.26Z" transform="translate(-498.56 -455)"/><g class="cls-11"><path class="cls-12" d="M1447.25,2580.58a25.87,25.87,0,0,0,25.23,19.27l963.66-8.22a19.56,19.56,0,0,0-.08-39.11l-963.69-4.4A25.86,25.86,0,0,0,1447.25,2580.58Z" transform="translate(-498.56 -455)"/></g><g class="cls-11"><path class="cls-12" d="M1851.5,2811.73h0c1.93,11.43,8.61,19.36,16.21,19.26l619.34-8.22c7-.09,12.61-9.08,12.46-20-.15-10.59-5.7-19.08-12.51-19.13l-619.36-4.39C1856.71,2779.19,1848.71,2795.28,1851.5,2811.73Z" transform="translate(-498.56 -455)"/></g><path class="cls-13" d="M1883.36,487c-52.75-36.7-98.63-36-130.92-26.45a64.42,64.42,0,0,0-45.75,67.72l13.93,152L1886.33,695S1986.83,559,1883.36,487Zm-72.87,122.63a41.32,41.32,0,1,1,41.32-41.32A41.32,41.32,0,0,1,1810.49,609.62Z" transform="translate(-498.56 -455)"/><path class="cls-12" d="M1737.17,616.32a4,4,0,0,1-4-3.63L1731,588.48a4,4,0,1,1,8-.73l2.22,24.21a4,4,0,0,1-3.62,4.35Zm-4.34-47.44a4,4,0,0,1-4-3.63l-1.69-18.38a61.5,61.5,0,0,1,43.59-64.51,123.92,123.92,0,0,1,60.57-2.48,4,4,0,1,1-1.61,7.83A116.07,116.07,0,0,0,1773,490a53.47,53.47,0,0,0-37.89,56.12l1.68,18.37a4,4,0,0,1-3.62,4.35Z" transform="translate(-498.56 -455)"/><path class="cls-14" d="M1494.45,778.5V702.07a46.62,46.62,0,0,1,48.23-46.6l526.9,18a45.36,45.36,0,0,1,43.72,42.61l4.4,73.44Z" transform="translate(-498.56 -455)"/><path class="cls-12" d="M1690.91,684.26h-22.65a4,4,0,1,1,0-8h22.65a4,4,0,1,1,0,8Z" transform="translate(-498.56 -455)"/><path class="cls-12" d="M1523,754.5a4,4,0,0,1-4-4V719.58a43.36,43.36,0,0,1,43.32-43.31h83.3a4,4,0,1,1,0,8h-83.3A35.37,35.37,0,0,0,1527,719.58V750.5A4,4,0,0,1,1523,754.5Z" transform="translate(-498.56 -455)"/><path class="cls-15" d="M1279.76,797.8a49.64,49.64,0,0,1,49.59-47.27l921.39,0a68.1,68.1,0,0,1,67.1,56.49l.78,4.5A58.48,58.48,0,0,1,2261,880H1315.7a38,38,0,0,1-38-39.85Z" transform="translate(-498.56 -455)"/><path class="cls-16" d="M2060.48,2973.49c-10.1,0-20.3-4.86-31.15-14.82-42.33-38.89-52.22-99.64-54.69-156.58-20.33,22.9-41.22,45.15-61.85,67.14l-7.38-6.92c23-24.49,46.27-49.31,68.73-75a1651,1651,0,0,1,10.44-230.06c5.38-46.36,13.11-95.41,33.17-140.07,6.31-14.08,16.79-34.25,34.69-46.76,18.39-12.86,42.45-14.31,58.5-3.54,18.12,12.18,23,35.59,25.18,52.14,12.75,99.25-26,190.3-60.79,249.2-26,44.06-57.55,84.4-91,122.77,1.67,57.81,9.55,121.38,51.81,160.2,9.19,8.44,17.39,12.46,25.07,12.14,12.68-.46,22.59-12.27,30.61-23.76a627.17,627.17,0,0,0,81.65-163,168.78,168.78,0,0,1,14.29-49.79l9.5,3.33q-6,24.71-13.87,48.7a158.93,158.93,0,0,0,1.88,50.09c1.8,8.94,9.38,38.46,31.71,42.71,16.81,3.19,33.4-8.6,52.19-37.16l66.59-101.22-6.4,27.57c-3.42,14.72-9.06,49.91,12.32,58.71,12.25,5,25.18-2.24,38.87-9.95,13.35-7.51,27.14-15.26,42.46-13.26l5.21.7-.89,5.18c-3.52,20.41-1.78,45.53,14.73,49.18,10.8,2.42,19.66-5.8,29.92-15.28,8.7-8,17.7-16.36,29.24-19.16l2.38,9.84c-9,2.18-17,9.59-24.75,16.75-11.31,10.46-23,21.27-39,17.74-21.74-4.82-26.38-30.65-23.36-55.11-10.19.53-20.34,6.24-31,12.24-15.19,8.55-30.89,17.39-47.69,10.49-15.54-6.4-23.06-23.17-21.77-47.28L2277.67,2840c-13.42,20.39-34.49,46.9-62.54,41.54-19.26-3.67-34.12-22.61-39.74-50.66a167.56,167.56,0,0,1-2.86-21.51,637.33,637.33,0,0,1-72.37,136c-9.45,13.54-21.42,27.46-38.55,28.08C2061.23,2973.49,2060.85,2973.49,2060.48,2973.49Zm25.32-603.72a48.73,48.73,0,0,0-27.56,9c-15.85,11.08-25.43,29.63-31.26,42.61-19.5,43.41-27.07,91.54-32.34,137.1A1640.51,1640.51,0,0,0,1984,2775.93c30.37-35.46,58.87-72.63,82.6-112.83,34-57.53,71.85-146.35,59.46-242.76-3-23.19-9.59-37.51-20.79-45A34.78,34.78,0,0,0,2085.8,2369.77Z" transform="translate(-498.56 -455)"/><path class="cls-17" d="M1746.79,209.49h738.59a0,0,0,0,1,0,0V820a16.76,16.76,0,0,1-16.76,16.76H1763.55A16.76,16.76,0,0,1,1746.79,820V209.49A0,0,0,0,1,1746.79,209.49Z"/><path class="cls-18" d="M1746.79,207.81h738.59a0,0,0,0,1,0,0V742.44a16.76,16.76,0,0,1-16.76,16.76H1763.55a16.76,16.76,0,0,1-16.76-16.76V207.81A0,0,0,0,1,1746.79,207.81Z"/><rect class="cls-19" x="1789.31" y="231.92" width="25.43" height="43.23"/><rect class="cls-20" x="1846.53" y="231.92" width="25.43" height="43.23"/><rect class="cls-21" x="1897.07" y="231.92" width="25.43" height="43.23"/><rect class="cls-22" x="1954.28" y="231.92" width="25.43" height="43.23"/><rect class="cls-23" x="2004.82" y="231.92" width="25.43" height="43.23"/><rect class="cls-24" x="2062.04" y="231.92" width="25.43" height="43.23"/><rect class="cls-25" x="2112.58" y="231.92" width="25.43" height="43.23"/><rect class="cls-26" x="2169.79" y="231.92" width="25.43" height="43.23"/><rect class="cls-27" x="2220.33" y="231.92" width="25.43" height="43.23"/><rect class="cls-28" x="2277.54" y="231.92" width="25.43" height="43.23"/><rect class="cls-29" x="2328.08" y="231.92" width="25.43" height="43.23"/><rect class="cls-30" x="2385.3" y="231.92" width="25.43" height="43.23"/><rect class="cls-12" x="2075.51" y="297.52" width="76.75" height="76.75"/><rect class="cls-12" x="2168.79" y="297.52" width="76.75" height="76.75"/><rect class="cls-12" x="2261.12" y="297.52" width="76.75" height="76.75"/><rect class="cls-12" x="2352.69" y="297.52" width="76.75" height="76.75"/><rect class="cls-12" x="1798.43" y="394.03" width="76.75" height="76.75"/><rect class="cls-12" x="1890.76" y="394.03" width="76.75" height="76.75"/><rect class="cls-12" x="1982.33" y="394.03" width="76.75" height="76.75"/><rect class="cls-12" x="2075.42" y="394.03" width="76.75" height="76.75"/><rect class="cls-12" x="2168.7" y="394.03" width="76.75" height="76.75"/><rect class="cls-12" x="2261.02" y="394.03" width="76.75" height="76.75"/><rect class="cls-12" x="2352.59" y="394.03" width="76.75" height="76.75"/><rect class="cls-12" x="1800.71" y="485.98" width="76.75" height="76.75"/><rect class="cls-12" x="1893.04" y="485.98" width="76.75" height="76.75"/><rect class="cls-31" x="1984.61" y="485.98" width="76.75" height="76.75"/><rect class="cls-12" x="2077.7" y="485.98" width="76.75" height="76.75"/><rect class="cls-12" x="2170.98" y="485.98" width="76.75" height="76.75"/><rect class="cls-12" x="2263.3" y="485.98" width="76.75" height="76.75"/><rect class="cls-12" x="2354.87" y="485.98" width="76.75" height="76.75"/><rect class="cls-12" x="1802.99" y="576.78" width="76.75" height="76.75"/><rect class="cls-12" x="1895.32" y="576.78" width="76.75" height="76.75"/><rect class="cls-12" x="1986.89" y="576.78" width="76.75" height="76.75"/><rect class="cls-12" x="2079.98" y="576.78" width="76.75" height="76.75"/><rect class="cls-12" x="2173.26" y="576.78" width="76.75" height="76.75"/><rect class="cls-12" x="2265.58" y="576.78" width="76.75" height="76.75"/><rect class="cls-12" x="2357.15" y="576.78" width="76.75" height="76.75"/><rect class="cls-12" x="1802.99" y="667.39" width="76.75" height="76.75"/><rect class="cls-12" x="1895.32" y="667.39" width="76.75" height="76.75"/><rect class="cls-12" x="1986.89" y="667.39" width="76.75" height="76.75"/><path class="cls-32" d="M2338.08,652.51h-32.65a13.71,13.71,0,0,0-13.67,13.67v30.37h9.87V676.81a13.71,13.71,0,0,1,13.67-13.67H2348a13.46,13.46,0,0,1,3.55.49A13.72,13.72,0,0,0,2338.08,652.51Z" transform="translate(-498.56 -455)"/><path class="cls-33" d="M2401.51,652.51h-32.65a13.71,13.71,0,0,0-13.67,13.67v30.37h9.87V676.81a13.71,13.71,0,0,1,13.67-13.67h32.65a13.39,13.39,0,0,1,3.54.49A13.71,13.71,0,0,0,2401.51,652.51Z" transform="translate(-498.56 -455)"/><path class="cls-34" d="M2454.22,652.51h-32.64a13.71,13.71,0,0,0-13.67,13.67v30.37h9.87V676.81a13.71,13.71,0,0,1,13.67-13.67h32.64a13.4,13.4,0,0,1,3.55.49A13.71,13.71,0,0,0,2454.22,652.51Z" transform="translate(-498.56 -455)"/><path class="cls-35" d="M2508.53,652.51h-32.65a13.71,13.71,0,0,0-13.66,13.67v30.37h9.87V676.81a13.71,13.71,0,0,1,13.67-13.67h32.64a13.4,13.4,0,0,1,3.55.49A13.71,13.71,0,0,0,2508.53,652.51Z" transform="translate(-498.56 -455)"/><path class="cls-36" d="M2558.74,652.51h-32.65a13.71,13.71,0,0,0-13.67,13.67v30.37h9.87V676.81A13.71,13.71,0,0,1,2536,663.14h32.65a13.46,13.46,0,0,1,3.55.49A13.72,13.72,0,0,0,2558.74,652.51Z" transform="translate(-498.56 -455)"/><path class="cls-37" d="M2613.05,652.51H2580.4a13.71,13.71,0,0,0-13.67,13.67v30.37h9.87V676.81a13.71,13.71,0,0,1,13.67-13.67h32.65a13.46,13.46,0,0,1,3.55.49A13.72,13.72,0,0,0,2613.05,652.51Z" transform="translate(-498.56 -455)"/><path class="cls-38" d="M2665.77,652.51h-32.65a13.71,13.71,0,0,0-13.67,13.67v30.37h9.87V676.81A13.71,13.71,0,0,1,2643,663.14h32.65a13.46,13.46,0,0,1,3.55.49A13.72,13.72,0,0,0,2665.77,652.51Z" transform="translate(-498.56 -455)"/><path class="cls-39" d="M2724.64,652.51H2692a13.71,13.71,0,0,0-13.67,13.67v30.37h9.87V676.81a13.71,13.71,0,0,1,13.67-13.67h32.65a13.39,13.39,0,0,1,3.54.49A13.71,13.71,0,0,0,2724.64,652.51Z" transform="translate(-498.56 -455)"/><path class="cls-40" d="M2775.4,652h-32.65a13.71,13.71,0,0,0-13.67,13.66v30.37H2739V676.32a13.71,13.71,0,0,1,13.67-13.66h32.65a13.46,13.46,0,0,1,3.55.48A13.72,13.72,0,0,0,2775.4,652Z" transform="translate(-498.56 -455)"/><path class="cls-41" d="M2828.12,652h-32.65a13.71,13.71,0,0,0-13.67,13.66v30.37h9.87V676.32a13.71,13.71,0,0,1,13.67-13.66H2838a13.38,13.38,0,0,1,3.54.48A13.7,13.7,0,0,0,2828.12,652Z" transform="translate(-498.56 -455)"/><path class="cls-42" d="M2932.52,653.26h-32.65a13.71,13.71,0,0,0-13.66,13.67V697.3h9.87V677.56a13.71,13.71,0,0,1,13.66-13.67h32.65a13.4,13.4,0,0,1,3.55.49A13.71,13.71,0,0,0,2932.52,653.26Z" transform="translate(-498.56 -455)"/><path class="cls-43" d="M2887,652h-32.65a13.71,13.71,0,0,0-13.67,13.66v30.37h9.87V676.32a13.71,13.71,0,0,1,13.67-13.66h32.65a13.38,13.38,0,0,1,3.54.48A13.7,13.7,0,0,0,2887,652Z" transform="translate(-498.56 -455)"/><circle class="cls-44" cx="1465.67" cy="1148.87" r="122.99" transform="translate(-881.65 917.88) rotate(-45)"/><circle class="cls-45" cx="1465.67" cy="1148.87" r="118.9" transform="translate(-881.65 917.88) rotate(-45)"/><path class="cls-12" d="M1359.15,1130.71a3.8,3.8,0,0,1-1.84,0,4,4,0,0,1-3.09-4.69,113.25,113.25,0,0,1,81.67-87,115.25,115.25,0,0,1,20.28-3.59,4,4,0,1,1,.67,7.92,107,107,0,0,0-18.87,3.35,105.34,105.34,0,0,0-76,80.89A4,4,0,0,1,1359.15,1130.71Z" transform="translate(-498.56 -455)"/><circle class="cls-10" cx="1468.85" cy="1150.69" r="100.64" transform="translate(-882.01 920.66) rotate(-45)"/><path class="cls-46" d="M1478.9,1225.48l-2.86-10.57a89.23,89.23,0,0,1-31.4,1.62,6.33,6.33,0,0,1-5.33-6.31v-10.57a6.38,6.38,0,0,1,7.27-6.3,74.1,74.1,0,0,0,28.94-1.66c10.61-2.88,17.54-8.62,15.54-16-1.8-6.66-9-9-24.81-8.91-22.6,0-40.19-5.12-45.22-23.64-4.53-16.73,4.23-32.81,24.52-42l-2.86-10.56a6.38,6.38,0,0,1,4.48-7.83l6.21-1.68a6.37,6.37,0,0,1,7.83,4.48l2.57,9.49a81.44,81.44,0,0,1,24.65-2.16,6.36,6.36,0,0,1,5.83,6.36V1109a6.36,6.36,0,0,1-7,6.35,66.46,66.46,0,0,0-24.18,2.07c-12.59,3.41-14.77,9.6-13.5,14.28,1.56,5.75,10.19,7.66,27.92,8.26,25.28.67,37.62,7.74,42.35,25.19,4.34,16-3.62,33.61-25.66,43.45l3.2,11.83a6.36,6.36,0,0,1-4.48,7.82l-6.21,1.69A6.39,6.39,0,0,1,1478.9,1225.48Z" transform="translate(-498.56 -455)"/><circle class="cls-47" cx="1765.37" cy="916.44" r="214.11" transform="translate(-629.52 1061.72) rotate(-45)"/><circle class="cls-48" cx="1765.37" cy="916.44" r="206.99" transform="translate(-629.52 1061.72) rotate(-45)"/><path class="cls-12" d="M1579.17,882a3.93,3.93,0,0,1-1.84.06,4,4,0,0,1-3.1-4.69A194.25,194.25,0,0,1,1714.3,728.19a197.17,197.17,0,0,1,34.78-6.15,4,4,0,0,1,.68,7.92,188.83,188.83,0,0,0-33.38,5.91A186.34,186.34,0,0,0,1582,878.94,4,4,0,0,1,1579.17,882Z" transform="translate(-498.56 -455)"/><circle class="cls-10" cx="1770.9" cy="919.61" r="175.19" transform="translate(-630.14 1066.56) rotate(-45)"/><path class="cls-49" d="M1788.41,1049.81l-5-18.4c-19.38,4.44-39.57,5.06-54.65,2.82a11,11,0,0,1-9.29-11l0-18.4a11.11,11.11,0,0,1,12.65-11c14.89,2,32.59,1.93,50.38-2.89,18.47-5,30.55-15,27.06-27.85-3.14-11.58-15.65-15.58-43.19-15.5-39.34-.08-70-8.92-78.72-41.16-7.9-29.11,7.36-57.12,42.69-73.08l-5-18.4a11.11,11.11,0,0,1,7.81-13.63l10.81-2.93a11.1,11.1,0,0,1,13.62,7.81l4.48,16.52c17.94-4.1,31.68-4.57,42.91-3.75a11,11,0,0,1,10.15,11.07v17a11.07,11.07,0,0,1-12.16,11,116,116,0,0,0-42.1,3.6c-21.91,6-25.71,16.72-23.5,24.86,2.72,10,17.73,13.34,48.6,14.38,44,1.17,65.5,13.49,73.74,43.85,7.55,27.87-6.31,58.51-44.68,75.65l5.58,20.58a11.11,11.11,0,0,1-7.81,13.63l-10.81,2.93A11.09,11.09,0,0,1,1788.41,1049.81Z" transform="translate(-498.56 -455)"/><circle class="cls-50" cx="1534.52" cy="884.32" r="220.31"/><circle class="cls-51" cx="2033.08" cy="1339.32" r="212.99" transform="translate(-850.12 1374.88) rotate(-45)"/><path class="cls-12" d="M1841.45,1303.75a3.89,3.89,0,0,1-1.83.06,4,4,0,0,1-3.1-4.7,199.75,199.75,0,0,1,144-153.38,202.68,202.68,0,0,1,35.78-6.33,4,4,0,1,1,.67,7.92,195.17,195.17,0,0,0-34.36,6.08,191.85,191.85,0,0,0-138.34,147.31A4,4,0,0,1,1841.45,1303.75Z" transform="translate(-498.56 -455)"/><circle class="cls-10" cx="1540.22" cy="887.58" r="180.27"/><path class="cls-52" d="M2056.79,1476.55l-5.14-18.93c-19.94,4.57-40.72,5.21-56.23,2.9a11.35,11.35,0,0,1-9.56-11.3l0-18.93a11.44,11.44,0,0,1,13-11.29c15.31,2,33.53,2,51.84-3,19-5.16,31.43-15.45,27.84-28.66-3.23-11.91-16.1-16-44.44-15.95-40.49-.08-72-9.17-81-42.35-8.13-30,7.57-58.77,43.92-75.2l-5.13-18.93a11.42,11.42,0,0,1,8-14l11.12-3a11.43,11.43,0,0,1,14,8l4.62,17c18.45-4.22,32.59-4.7,44.14-3.86a11.38,11.38,0,0,1,10.46,11.39V1268a11.4,11.4,0,0,1-12.51,11.37,118.77,118.77,0,0,0-43.32,3.71c-22.55,6.11-26.46,17.2-24.18,25.58,2.79,10.3,18.24,13.72,50,14.79,45.29,1.2,67.4,13.88,75.88,45.12,7.78,28.67-6.49,60.21-46,77.84l5.75,21.18a11.43,11.43,0,0,1-8,14l-11.12,3A11.43,11.43,0,0,1,2056.79,1476.55Z" transform="translate(-498.56 -455)"/><circle class="cls-53" cx="2227.28" cy="975.68" r="161.42" transform="translate(-628.05 -77.94) rotate(-9.4)"/><circle class="cls-54" cx="2227.28" cy="975.68" r="156.05" transform="translate(-536.11 1405.7) rotate(-45)"/><path class="cls-12" d="M2087.15,950.65a4,4,0,0,1-1.83.05,4,4,0,0,1-3.1-4.69,147.42,147.42,0,0,1,106.3-113.2,149.67,149.67,0,0,1,26.4-4.67,4,4,0,1,1,.68,7.92,142,142,0,0,0-25,4.43A139.49,139.49,0,0,0,2090,947.6,4,4,0,0,1,2087.15,950.65Z" transform="translate(-498.56 -455)"/><circle class="cls-10" cx="2231.45" cy="978.07" r="132.08" transform="translate(-536.58 1409.35) rotate(-45)"/><path class="cls-55" d="M2244.65,1076.23l-3.76-13.87c-14.61,3.34-29.84,3.81-41.2,2.12a8.31,8.31,0,0,1-7-8.27l0-13.88a8.38,8.38,0,0,1,9.54-8.27,97.27,97.27,0,0,0,38-2.18c13.93-3.78,23-11.31,20.41-21-2.37-8.73-11.8-11.75-32.57-11.69-29.66-.06-52.75-6.72-59.35-31-5.95-21.95,5.55-43.06,32.19-55.1l-3.77-13.87a8.37,8.37,0,0,1,5.89-10.27l8.15-2.21a8.37,8.37,0,0,1,10.27,5.89l3.38,12.45a106.64,106.64,0,0,1,32.35-2.83,8.33,8.33,0,0,1,7.66,8.34V923.4a8.36,8.36,0,0,1-9.16,8.33,87.09,87.09,0,0,0-31.74,2.71c-16.53,4.48-19.39,12.61-17.72,18.74,2,7.56,13.36,10.06,36.64,10.84,33.18.88,49.38,10.17,55.59,33.07,5.7,21-4.76,44.11-33.69,57l4.21,15.52a8.37,8.37,0,0,1-5.89,10.28l-8.15,2.21A8.37,8.37,0,0,1,2244.65,1076.23Z" transform="translate(-498.56 -455)"/><path class="cls-56" d="M3086.77,1453.11c-20.12,64-57.77,87.56-88.39,77.94-31.3-9.85-46.48-50.55-28.46-109,18.06-57.45,54.38-87.6,88.78-76.78C3094.13,1356.37,3104,1398.47,3086.77,1453.11ZM2959,1658.77l228.39-273.08,24.08,7.57-228.39,273.08Zm43.87-228.46c-11.36,34.92-10.15,63.53,6.71,68.83s32.74-16.39,44.35-53.29c10.57-33.63,12.21-62.88-6-68.61C3030.68,1371.83,3013.56,1396.21,3002.84,1430.31Zm198.38,197.37c-20,63.52-57.43,87.67-88.39,77.93s-46.47-50.54-28-109.39c17.92-57,54.39-87.6,88.44-76.89C3208.74,1530.48,3218.41,1573,3201.22,1627.68Zm-83.92-22.8c-11.22,34.45-10.16,63.53,6.7,68.83,17.2,5.41,32.75-16.39,44.35-53.28,10.72-34.1,12.22-62.89-6-68.62C3145.14,1546.4,3128,1570.79,3117.3,1604.88Z" transform="translate(-498.56 -455)"/><path class="cls-57" d="M2849.71,1531.61h-38.09v-31h38.09v-55.93h29.54v55.93h38.09v31h-38.09v55.18h-29.54Z" transform="translate(-498.56 -455)"/><path class="cls-58" d="M1544.4,3240.1a11,11,0,0,0-.28-2.84c-14.15-56.09-84.38-91-84.38-91l-27.82,2.18c-16,49.44-14,79.76-11.38,93.27.07.37.19.73.29,1.1C1443.78,3244.83,1491,3246.17,1544.4,3240.1Z" transform="translate(-498.56 -455)"/><path class="cls-59" d="M1420.83,3242.78a12.08,12.08,0,0,0,8.83,8.92c32.65,6.86,84.55,1.34,106.34-1.51,4.81-.63,8.32-5.07,8.4-10.09C1491,3246.17,1443.78,3244.83,1420.83,3242.78Z" transform="translate(-498.56 -455)"/><path class="cls-60" d="M1420.73,3107l11.78,56.74a9.27,9.27,0,0,0,7.93,7.63,78.14,78.14,0,0,0,18.26-.29c6.08-.89,10.31-7.07,9.24-13.7l-8.2-50.38Z" transform="translate(-498.56 -455)"/><path class="cls-61" d="M1664.92,3242.06c-30.74-.86-46.63-4.48-54.85-7.84,0,3.06,0,6.17.1,9.39.1,3.44,2.65,6.19,5.79,6.17l168.74-1.09c5.38,0,8.53-6.28,6.2-11.22C1768.77,3239.3,1712.42,3243.39,1664.92,3242.06Z" transform="translate(-498.56 -455)"/><path class="cls-62" d="M1790.9,3237.47a8.6,8.6,0,0,0-.67-1.27c-14.9-20.82-52.86-62.28-127.86-80.27l-36-1.13s-16,27.84-16.32,79.42c8.22,3.36,24.11,7,54.85,7.84C1712.42,3243.39,1768.77,3239.3,1790.9,3237.47Z" transform="translate(-498.56 -455)"/><path class="cls-63" d="M1618.12,3101.94c.57,2.65,8.05,43,11,58.68a7.83,7.83,0,0,0,7,6.64c6.16.34,16.1.38,24.64-1.94,4.61-1.25,7.71-6,7.38-11.16l-4-63.86Z" transform="translate(-498.56 -455)"/><path class="cls-64" d="M1590.86,2356.55s49.49,340.1,85.21,744.81c.66,7.54-5.34,14.1-12.75,15.66-10.91,2.3-27,5-40.23,4.65a14.9,14.9,0,0,1-14.2-12.44c-12.17-71.36-99-454.32-121.78-538.61,0,0-26.18,358-17.81,543.78a8.81,8.81,0,0,1-7.77,9.15,147.33,147.33,0,0,1-32.29-.09,11.78,11.78,0,0,1-10.5-10c-8.67-60.39-58.55-419.86-56.43-678.81.12-14.6,17.13-134.58,17.13-134.58Z" transform="translate(-498.56 -455)"/><path class="cls-65" d="M2015.1,2031.4s-13.85-36.47-30-33.13-33.89,15.77-33.89,15.77l-26,35.16s73,28.75,98.65,12.28c0,0,74.55,12.88,168.69-2.57-13.63-28.77-21.75-57.58-26.52-79.93C2118.32,2006,2067,2026.12,2015.1,2031.4Z" transform="translate(-498.56 -455)"/><path class="cls-66" d="M2410,1766.85S2303.26,1901.28,2166,1979c4.77,22.35,12.89,51.16,26.52,79.93,71.2-11.68,153.61-39.57,223.47-101.53Z" transform="translate(-498.56 -455)"/><path class="cls-67" d="M1610,1784.63l6.62,178a488.08,488.08,0,0,0,53.8,15.28c10.68-34.36,34.18-76.54,53.42-107.89C1653.18,1845,1610,1784.63,1610,1784.63Z" transform="translate(-498.56 -455)"/><path class="cls-68" d="M1963,1781.6c-97,104.72-175.5,110.88-239.16,88.38-19.24,31.35-42.74,73.53-53.42,107.89,259,57.1,320-181,320-181Z" transform="translate(-498.56 -455)"/><path class="cls-69" d="M1982.71,1770.48s11.17-12,31.85-8.23,39.08,11,52,0,17.42,3.75,17.42,3.75l-38.58,29.32Z" transform="translate(-498.56 -455)"/><path class="cls-70" d="M1959.63,1791s7.66-32,30.73-27.63,75.44,32.87,88.94,27.63,30.75-17.81,39.61-13.37l-15.6,19.39s40.1-23.13,47-8.92l-66.72,37.55S1986,1815.86,1959.63,1791Z" transform="translate(-498.56 -455)"/><path class="cls-71" d="M1372,2376.16a14,14,0,0,1-9.19-11.8c-6.58-63.85-38.45-459.77,162.74-622.64,0,0,11.54-30.19,106.37,44s44.06,152,21.36,259.26c-27.48,129.81-75.68,235.92-54.35,315.81a11.07,11.07,0,0,1-6.78,13.27C1518.48,2401.23,1445.09,2402.13,1372,2376.16Z" transform="translate(-498.56 -455)"/><path class="cls-72" d="M1604,1623.09c-.07,5.64-80.4,119.75-80.4,119.75s14.42,28.4,83.26,51.45l59.42-122.17Z" transform="translate(-498.56 -455)"/><path class="cls-73" d="M1572.43,2014.87s152.42,127.65,317,72a39.14,39.14,0,0,1,30.9,2.33l47.32,25a42.24,42.24,0,0,0,56-15.68c6.57-11,12.18-23.55,13.3-35.59l-92.59-37.48,6.83-11.35s-45.21-3.83-57,28.57c0,0-86.1,35.81-231.31-123.9C1662.83,1918.71,1596.94,1974.73,1572.43,2014.87Z" transform="translate(-498.56 -455)"/><path class="cls-74" d="M1564.23,2013.55a2.64,2.64,0,0,1-1.46-.45c-64.18-43.36-94.37-113.35-94.66-114a2.61,2.61,0,1,1,4.8-2c.29.69,29.92,69.29,92.78,111.77a2.61,2.61,0,0,1-1.46,4.77Z" transform="translate(-498.56 -455)"/><path class="cls-75" d="M1659.82,1916.54a2.6,2.6,0,0,1-2.19-1.2c-.2-.3-19.8-30.82-57.15-97.69-11.48-20.56-26.57-33.58-44.85-38.69-30.28-8.46-59.45,7.77-59.74,7.93a2.61,2.61,0,1,1-2.58-4.53c1.26-.72,31.27-17.51,63.68-8.44,19.69,5.49,35.86,19.35,48,41.19,37.25,66.7,56.78,97.11,57,97.41a2.59,2.59,0,0,1-.77,3.6A2.55,2.55,0,0,1,1659.82,1916.54Z" transform="translate(-498.56 -455)"/><path class="cls-76" d="M1667.28,1557.71s28.58,65.66,30.5,100.13,9.35,56.83-30.5,63.77-73.42-12.91-91.61-47.25c0,0-28.5-52.9-22.1-74.56S1667.28,1557.71,1667.28,1557.71Z" transform="translate(-498.56 -455)"/><path class="cls-77" d="M1589.29,1649.68l2.27-1a5.47,5.47,0,0,0,2.67-7.51c-5.62-10.86-16.58-35.74-2.42-41.55,18.24-7.48,90.48-22.21,106.07-47.85,15-24.63,1.71-56.44-18.24-65.48a2.75,2.75,0,0,0-3.6,1.17l-1.66,3.14a2.7,2.7,0,0,1-5-.51h0a2.7,2.7,0,0,0-4.88-.7c-4.79,7.67-17.73,20.11-52.32,26.49-49.16,9.07-81.67,29-82.48,62.94a2.71,2.71,0,0,1-4.19,2.24c-3.63-2.22-9.44-3.25-17.2,3.27-13.5,11.36-8,40.81,21.62,65a2.69,2.69,0,0,1-.13,4.34c-5.36,3.49-13.36,11.8,7.37,22.88,21.43,11.46,37.44,10.52,43.61,9.51a2.7,2.7,0,0,0,2.18-3.26L1576.4,1653a2.7,2.7,0,0,1,2.64-3.29Z" transform="translate(-498.56 -455)"/><path class="cls-78" d="M1590.53,1656s-10.91-41.94-29.72-30.18,9.76,47,24.88,48.56Z" transform="translate(-498.56 -455)"/><path class="cls-79" d="M1920.34,2089.15s38.73,37.88,46.21,32.37c2.66-2,9.37-9.09,15.88-17a16.62,16.62,0,0,0,1.13-19.59l-9.14-14.1a26.4,26.4,0,0,0-39.41-5.74C1928.92,2070.36,1923.39,2078,1920.34,2089.15Z" transform="translate(-498.56 -455)"/><path class="cls-80" d="M2543.1,2362.69c-20.87-99.15-41.75-156.55-111.64-344.48-22-59.14-42-119-32.31-181.33l10.84-70s135.83-46,286.38-1.94c0,0,205.41,89.24,65.89,529.94C2699.38,2365.21,2625.78,2385.26,2543.1,2362.69Z" transform="translate(-498.56 -455)"/><path class="cls-81" d="M2433.11,1677.47l35.22,84.61a16.88,16.88,0,0,0,12.74,10.13c20.31,3.48,69.42,8.92,101.67-12.28a8.2,8.2,0,0,0,2.19-11.53L2519.86,1655Z" transform="translate(-498.56 -455)"/><path class="cls-82" d="M2520,2075.11a7.82,7.82,0,0,0-4.94,11.17l101.89,195.38a7.82,7.82,0,0,0,9.1,3.9l333.29-96.23a7.84,7.84,0,0,0,5.35-9.69l-57.42-198.75a7.81,7.81,0,0,0-9.5-5.39Z" transform="translate(-498.56 -455)"/><path class="cls-83" d="M2541.48,2052.15a8.19,8.19,0,0,0-5.79,10.79l81.56,221.55a8.2,8.2,0,0,0,10,5l332.28-95.94a8.17,8.17,0,0,0,5.73-9.59l-46-213.24a8.18,8.18,0,0,0-9.9-6.23Z" transform="translate(-498.56 -455)"/><path class="cls-84" d="M2570.42,2029.79a10.11,10.11,0,0,0-8.34,12.28l55.4,239.18a10.11,10.11,0,0,0,12.66,7.43l327.25-94.48a10.12,10.12,0,0,0,7-12.25l-50.32-195.23a10.12,10.12,0,0,0-11.32-7.48Z" transform="translate(-498.56 -455)"/><path class="cls-85" d="M2835.32,2121c25.4-191.86-122.45-339.39-122.45-339.39l-88,102.55c66.79,83.25,98.54,159.54,113,219.46C2757.17,2098,2803.48,2089.16,2835.32,2121Z" transform="translate(-498.56 -455)"/><path class="cls-86" d="M2737.93,2109.05a5.44,5.44,0,0,1-5.29-4.16c-17.88-73.86-55.56-147-112-217.33a5.45,5.45,0,1,1,8.49-6.82c57.45,71.61,95.83,146.16,114.09,221.58a5.45,5.45,0,0,1-4,6.58A5.22,5.22,0,0,1,2737.93,2109.05Z" transform="translate(-498.56 -455)"/><path class="cls-87" d="M2737.93,2103.61c13.48,55.69,12.07,97.23,10,117.07a15.47,15.47,0,0,1-14.29,13.85c-8.52.59-20.11,1.37-30.47,2-11.4.66-24-6.54-32.49-12.56a5.09,5.09,0,0,0-7.49,6.43c6.31,12.35,22.32,23.33,33.36,29.8a5.27,5.27,0,0,1-1.21,9.62l-47.21,13.38c77.56,73.07,128.77-8.69,128.77-8.69,34.24-52.9,51.94-104.63,58.4-153.49C2803.48,2089.16,2757.17,2098,2737.93,2103.61Z" transform="translate(-498.56 -455)"/><path class="cls-88" d="M2469.53,1548c-1.47,1.39-62.42,121.08-62.42,121.08l69.08,33.35,74.61-104.86S2494.3,1524.7,2469.53,1548Z" transform="translate(-498.56 -455)"/><path class="cls-89" d="M2519.41,1610.16,2485,1667.59a10.77,10.77,0,0,1-1.89,2.36c-4.1,3.81-18.13,14.92-29-.2-9.25-12.89-17.92-24.6-27.22-29.43a11,11,0,0,0-14.86,4.89c-5.68,11.25-16.67,34.19-23.58,55.93a11,11,0,0,0,6.38,13.45c14,5.67,41.64,15.92,66.17,19.3a11,11,0,0,0,10.41-4.42c10.56-14.46,40.3-54.87,50.46-65,9.43-9.4,26.84-5.86,34.68-3.6a11.09,11.09,0,0,0,8.8-1.16c8-4.79,21.85-16.73,9.15-36.94a11,11,0,0,1,3.41-15c8.88-5.84,18.52-16.81,9.34-34.58-9.3-18-25.91-19.6-37.22-18.22a11.43,11.43,0,0,1-12-6.68,7.29,7.29,0,0,0-5.69-4.47,10.69,10.69,0,0,1-8.65-12.56c2-10.18.49-23.4-15.76-32.34-29.81-16.38-55.92,10.32-62.55,32.86s26.68,38.47,47.64,41.12c15.4,2,23.84,18.76,27.24,27.55A11,11,0,0,1,2519.41,1610.16Z" transform="translate(-498.56 -455)"/><path class="cls-90" d="M2508.91,1685.58s13.25-38.78,30.22-37.36,30.31,18.33,9.29,37.33C2522.26,1709.18,2508.91,1685.58,2508.91,1685.58Z" transform="translate(-498.56 -455)"/><path class="cls-91" d="M2529.73,3236.48c32.8,2.83,89.74,7.44,134.62,9.41,27,1.19,42.51-1.45,51.46-5,0,1,0,2-.08,2.84a9.28,9.28,0,0,1-8.82,8.77,1576,1576,0,0,1-176.28.18,6.61,6.61,0,0,1-5.38-9.93A53.83,53.83,0,0,1,2529.73,3236.48Z" transform="translate(-498.56 -455)"/><path class="cls-92" d="M2664.35,3245.89c-44.88-2-101.82-6.58-134.62-9.41,32.25-39.57,134.62-66.24,134.62-66.24h28.91c19.89,28.66,22.77,56,22.55,70.62C2706.86,3244.44,2691.33,3247.08,2664.35,3245.89Z" transform="translate(-498.56 -455)"/><path class="cls-93" d="M2698.13,3123l-2.7,53.55a12.25,12.25,0,0,1-10.44,11.5,47.66,47.66,0,0,1-21.72-1.8,14.48,14.48,0,0,1-9.73-11.12l-9.35-52.13Z" transform="translate(-498.56 -455)"/><path class="cls-94" d="M3073.67,3245.49c14.22-2,20.66-9.37,23.36-17.27a1.6,1.6,0,0,0,0,.21c2.09,8.33-2.76,17-12.46,21.08-11.73,5-24.54,5.81-34.5,5.4-10.67-.44-20.47-4.86-25.86-11.93l-.08-.11C3034.9,3248.18,3049.94,3248.8,3073.67,3245.49Z" transform="translate(-498.56 -455)"/><path class="cls-95" d="M3006.59,3122.69h23.85c36.31-.74,59.12,75.86,66.59,105.53-2.7,7.9-9.14,15.29-23.36,17.27-23.73,3.31-38.77,2.69-49.49-2.62-19.62-25.82-29.35-63.63-34-85.7C2984.83,3132.07,3006.59,3122.69,3006.59,3122.69Z" transform="translate(-498.56 -455)"/><path class="cls-96" d="M3027.37,3073l13.24,52.66a14.31,14.31,0,0,1-7.44,16.2c-7.4,3.8-17.83,7.79-27.41,6.63a11.92,11.92,0,0,1-9.74-8l-19.44-55.4Z" transform="translate(-498.56 -455)"/><path class="cls-97" d="M3043.16,3088.22c-16.47,14.61-70,16.54-70,16.54-193-463.22-273.46-590.75-273.46-590.75,27.86,174.85,6,623.64,6,623.64-31.85,14-72.91,0-72.91,0-2.58-286.24-42.89-593.82-94.86-790.62,130.45-2.93,201.34-31.37,224-49.28C2870.61,2473.05,3043.16,3088.22,3043.16,3088.22Z" transform="translate(-498.56 -455)"/></g></svg>